# xmcd
#
# Track frame offsets:
#	150
#	9115
#	18420
#	27367
#	37110
#	45305
#	53687
#	61377
#	68145
#	74175
#	94807
#	102485
#	115115
#	122580
#	129462
#
# Disc length: 1881 seconds
#
# Revision: 2
# Processed by: cddbd v1.5.2PL0 Copyright (c) Steve Scherf et al.
# Submitted via: audiograbber 1.83.01
#
DISCID=ca07570f
DTITLE=Jim Croce - Home Recordings: Americana
DYEAR=2003
DGENRE=Country
TTITLE0=Living With the Blues
TTITLE1=Things 'Bout Goin' My Way
TTITLE2=Nobody Loves a Fat Girl
TTITLE3=You Oughta See Pickles Now
TTITLE4=Cigarettes, Whiskey and Wild Wild Women
TTITLE5=In the Jailhouse Now
TTITLE6=If the Back Door Could Talk
TTITLE7=Who Will Buy This Wine
TTITLE8=Mom and Dad's Waltz
TTITLE9=The Wall
TTITLE10=Sadie Green (The Vamp of New Orleans)
TTITLE11=I Got Mine
TTITLE12=Wish I Could Shimmy Like My Sister Kate
TTITLE13=Six Days on the Road
TTITLE14=Mama Tried
EXTD=
EXTT0=
EXTT1=
EXTT2=
EXTT3=
EXTT4=
EXTT5=
EXTT6=
EXTT7=
EXTT8=
EXTT9=
EXTT10=The Vamp Of New Orleans
EXTT11=
EXTT12=
EXTT13=
EXTT14=
PLAYORDER=
